<?xml version="1.0" standalone="no"?>
<!DOCTYPE svg PUBLIC "-//W3C//DTD SVG 20010904//EN"
 "http://www.w3.org/TR/2001/REC-SVG-20010904/DTD/svg10.dtd">
<svg version="1.0" xmlns="http://www.w3.org/2000/svg"
 width="1024.000000pt" height="1024.000000pt" viewBox="0 0 1024.000000 1024.000000"
 preserveAspectRatio="xMidYMid meet">
<metadata>
Created by potrace 1.14, written by Peter Selinger 2001-2017
</metadata>
<g transform="translate(0.000000,1024.000000) scale(0.100000,-0.100000)"
fill="#000000" stroke="none">
<path d="M5691 9349 c-154 -53 -363 -158 -633 -318 -229 -135 -483 -324 -637
-474 -223 -219 -278 -356 -226 -561 31 -122 143 -361 226 -483 16 -24 29 -46
29 -49 0 -19 286 -405 378 -510 15 -17 49 -57 77 -90 131 -155 359 -364 397
-364 17 0 6 62 -33 181 -22 68 -43 131 -46 139 -3 8 -7 20 -9 25 -1 6 -30 89
-63 185 -198 570 -250 899 -177 1115 73 215 293 538 669 979 78 91 178 228
174 239 -6 19 -42 16 -126 -14z"/>
<path d="M4250 9321 c-133 -98 -415 -407 -610 -666 -333 -443 -486 -790 -435
-984 60 -230 410 -553 947 -874 301 -180 627 -328 668 -302 15 9 -13 57 -88
155 -36 47 -69 87 -72 90 -11 9 -276 345 -331 420 -179 241 -287 429 -340 585
-20 58 -23 91 -24 195 0 133 5 173 36 315 42 192 108 404 252 805 31 85 65
187 75 227 29 102 19 106 -78 34z"/>
<path d="M6947 8885 c-1 -2 -38 -5 -82 -9 -44 -3 -89 -8 -100 -10 -11 -2 -47
-7 -80 -10 -65 -8 -280 -43 -305 -51 -8 -2 -31 -7 -50 -10 -168 -28 -524 -130
-645 -184 -251 -113 -366 -195 -421 -303 -62 -122 -65 -340 -9 -653 36 -203
146 -575 246 -830 103 -261 234 -504 260 -478 16 16 20 71 24 323 5 276 13
545 20 625 7 77 15 155 20 189 3 17 7 45 9 61 15 111 39 207 73 295 85 214
311 409 833 719 85 51 213 127 284 169 71 42 143 90 160 106 l31 29 -25 10
c-20 8 -234 18 -243 12z"/>
<path d="M2914 8822 c-80 -103 -223 -421 -326 -722 -41 -120 -107 -339 -114
-378 -3 -12 -13 -59 -24 -105 -77 -331 -79 -603 -4 -733 100 -171 425 -330
929 -454 88 -22 198 -46 245 -54 86 -16 124 -23 170 -31 14 -3 48 -7 75 -11
28 -3 61 -7 75 -10 126 -21 412 -26 431 -7 19 19 -32 57 -298 218 -701 424
-921 614 -1000 865 -73 229 -92 442 -98 1075 -1 187 -6 348 -10 358 -10 24
-26 20 -51 -11z"/>
<path d="M6827 8194 c-1 -1 -40 -4 -87 -7 -241 -16 -391 -80 -471 -201 -34
-52 -97 -198 -105 -243 -3 -15 -7 -30 -9 -34 -7 -10 -53 -226 -59 -274 -3 -22
-8 -65 -12 -95 -3 -30 -8 -63 -10 -73 -19 -102 -27 -748 -11 -917 17 -189 43
-305 67 -305 21 0 57 78 136 290 177 477 273 698 382 880 126 211 230 300 452
385 88 33 254 85 303 94 16 3 43 9 60 14 68 21 376 82 587 117 156 26 267 54
282 72 32 40 -312 152 -662 216 -141 26 -130 24 -187 32 -26 4 -59 9 -73 11
-14 2 -50 6 -80 9 -30 3 -68 8 -85 10 -81 11 -409 26 -418 19z"/>
<path d="M1811 7877 c-12 -15 -37 -119 -46 -192 -3 -27 -7 -66 -10 -85 -24
-192 -24 -808 0 -952 2 -13 6 -47 9 -77 15 -143 55 -336 90 -438 62 -177 124
-264 228 -319 40 -21 186 -61 258 -70 126 -17 520 -10 695 11 74 9 120 16 145
20 14 2 42 7 63 10 87 12 119 18 252 46 316 67 541 145 520 179 -8 13 -126 45
-240 66 -16 3 -61 11 -100 19 -38 8 -81 16 -95 19 -14 3 -50 10 -80 15 -30 6
-66 13 -80 16 -247 47 -478 111 -650 180 -191 77 -297 159 -396 311 -63 96
-146 254 -198 379 -21 50 -44 104 -51 120 -7 17 -23 57 -35 90 -12 33 -26 69
-31 80 -5 11 -18 47 -30 80 -11 33 -23 67 -26 75 -3 8 -7 20 -9 25 -1 6 -29
82 -62 170 -80 218 -98 249 -121 222z"/>
<path d="M7311 7468 c-76 -13 -133 -49 -222 -137 -120 -121 -227 -286 -350
-541 -184 -381 -361 -914 -371 -1120 -2 -31 5 -50 16 -50 17 0 105 96 347 380
101 118 251 283 334 365 262 262 409 353 615 379 48 7 295 8 345 2 17 -2 66
-7 110 -10 44 -4 87 -9 95 -11 8 -2 38 -6 65 -10 28 -3 73 -10 100 -15 28 -5
70 -12 95 -15 25 -4 90 -15 145 -25 305 -58 435 -73 442 -53 11 31 -181 191
-392 328 -231 150 -594 342 -770 409 -38 15 -79 31 -90 36 -23 10 -142 48
-171 55 -10 2 -37 9 -59 14 -101 24 -214 32 -284 19z"/>
<path d="M1079 6573 c-6 -107 44 -324 141 -614 225 -670 498 -1123 729 -1210
53 -20 189 -27 251 -14 14 3 41 8 60 11 195 30 561 184 935 394 274 154 585
385 585 434 0 16 -7 18 -67 13 -38 -3 -165 -22 -283 -41 -256 -43 -395 -64
-470 -72 -30 -3 -66 -7 -80 -9 -49 -9 -217 -19 -310 -18 -174 0 -300 19 -389
60 -178 82 -429 316 -737 688 -261 316 -332 395 -355 395 -5 0 -9 -8 -10 -17z"/>
<path d="M7800 6541 c-30 -10 -79 -30 -108 -45 -60 -31 -223 -140 -272 -182
-203 -176 -325 -297 -509 -509 -182 -209 -376 -479 -427 -594 -24 -53 -24 -71
0 -71 11 0 147 66 186 90 34 22 192 110 196 110 2 0 23 12 47 27 201 128 613
321 782 366 98 26 116 29 205 30 103 1 146 -6 262 -44 209 -68 428 -177 843
-421 201 -118 297 -168 320 -168 25 0 17 34 -24 113 -154 292 -607 829 -901
1067 -30 25 -57 48 -60 51 -3 3 -39 28 -80 56 -193 130 -330 167 -460 124z"/>
<path d="M8020 5512 c-244 -29 -542 -142 -940 -354 -319 -171 -703 -446 -687
-492 5 -15 201 -6 227 9 3 2 26 6 50 9 25 4 57 9 72 12 15 3 39 7 55 9 15 2
42 6 58 9 84 13 224 36 255 40 83 11 127 17 160 21 202 24 470 25 585 1 166
-34 309 -128 525 -345 157 -157 210 -216 425 -476 233 -281 270 -319 285 -296
13 23 1 128 -31 256 -16 66 -32 131 -35 145 -11 51 -123 380 -172 500 -88 220
-191 436 -256 540 -156 247 -266 360 -387 399 -36 11 -142 19 -189 13z"/>
<path d="M836 5111 c-29 -47 193 -384 460 -698 111 -130 344 -369 434 -445
232 -197 411 -290 544 -283 237 11 614 306 1037 810 166 198 294 377 358 498
46 87 50 107 22 107 -24 0 -159 -70 -366 -190 -202 -117 -509 -274 -640 -328
-306 -125 -448 -135 -698 -50 -201 68 -375 155 -803 404 -281 163 -338 191
-348 175z"/>
<path d="M3724 4567 c-27 -28 -99 -110 -159 -182 -61 -71 -122 -143 -136 -160
-154 -177 -211 -238 -323 -350 -228 -227 -363 -322 -517 -361 -75 -19 -379
-27 -499 -13 -41 4 -95 11 -120 13 -98 11 -288 41 -390 61 -103 20 -392 66
-420 67 -86 2 -88 -3 -22 -69 147 -151 614 -446 952 -602 449 -208 738 -254
900 -145 220 150 486 625 688 1229 35 103 85 276 97 333 35 167 39 225 15 229
-8 2 -38 -21 -66 -50z"/>
<path d="M7487 4514 c-1 -1 -56 -5 -122 -8 -66 -4 -133 -9 -150 -11 -16 -2
-55 -7 -86 -10 -31 -3 -65 -7 -75 -9 -11 -2 -41 -7 -69 -10 -253 -34 -587
-112 -735 -173 -73 -29 -96 -46 -86 -62 7 -10 82 -35 136 -45 14 -2 59 -11
100 -20 73 -15 322 -62 377 -72 58 -10 322 -75 408 -100 124 -37 255 -88 350
-137 186 -97 326 -296 494 -707 35 -85 67 -164 71 -175 5 -11 50 -135 101
-275 95 -265 117 -318 142 -339 13 -10 18 -4 31 36 27 83 38 157 53 358 15
191 8 717 -11 865 -2 14 -7 48 -10 75 -48 371 -137 608 -264 700 -57 41 -148
76 -242 91 -14 2 -34 6 -45 9 -47 10 -360 26 -368 19z"/>
<path d="M4016 4178 c-17 -27 -55 -121 -141 -353 -218 -588 -360 -866 -522
-1021 -114 -110 -418 -229 -764 -299 -79 -16 -280 -55 -304 -58 -215 -34 -435
-83 -447 -100 -8 -13 25 -38 82 -61 25 -10 54 -22 65 -27 35 -14 281 -81 348
-95 10 -2 26 -5 35 -8 9 -3 28 -7 42 -10 14 -2 54 -9 90 -16 80 -15 95 -17
145 -24 22 -4 51 -8 65 -11 47 -8 87 -13 280 -34 121 -13 445 -10 545 5 211
33 315 94 390 229 50 91 109 270 130 395 3 19 8 42 10 50 2 8 7 40 10 70 4 30
8 57 10 60 2 3 6 46 10 95 4 50 9 92 10 96 6 9 18 326 18 454 0 122 -11 371
-19 435 -18 151 -40 240 -61 247 -6 2 -18 -6 -27 -19z"/>
<path d="M5885 3940 c-86 -6 -103 -15 -80 -40 22 -24 124 -90 345 -223 456
-275 686 -445 830 -613 89 -104 143 -243 175 -454 3 -19 7 -46 10 -60 2 -14 7
-61 10 -105 4 -44 8 -100 11 -125 2 -25 6 -227 8 -448 4 -383 9 -482 24 -482
55 1 212 320 351 709 47 130 125 388 137 451 3 14 10 43 16 65 5 22 12 49 14
60 5 33 24 138 28 160 10 53 19 189 18 265 -3 164 -35 253 -118 337 -111 112
-305 209 -599 302 -119 37 -337 94 -410 107 -16 3 -46 9 -65 14 -19 5 -48 11
-65 13 -16 3 -73 12 -125 21 -52 8 -117 18 -145 21 -27 4 -60 8 -72 10 -13 2
-67 7 -120 10 -54 4 -100 8 -103 9 -3 1 -36 -1 -75 -4z"/>
<path d="M4406 3892 c-10 -18 -17 -152 -21 -442 -5 -339 -13 -507 -29 -630 -3
-19 -8 -60 -11 -90 -17 -151 -72 -335 -127 -428 -70 -118 -272 -294 -523 -457
-181 -117 -176 -114 -390 -240 -243 -142 -335 -203 -335 -221 0 -37 237 -36
520 2 93 12 106 14 130 19 14 3 41 8 60 11 35 5 63 10 110 19 14 3 58 12 98
20 97 19 315 77 427 113 327 107 534 237 599 376 35 75 47 165 42 317 -3 74
-7 143 -9 154 -2 11 -8 43 -11 70 -31 221 -133 585 -251 895 -120 313 -252
557 -279 512z"/>
<path d="M5350 3735 c0 -27 61 -110 293 -395 6 -9 30 -38 52 -65 21 -28 42
-52 45 -55 3 -3 17 -21 30 -40 13 -19 27 -37 30 -40 22 -17 210 -293 262 -383
61 -108 122 -247 132 -299 2 -15 7 -32 11 -37 3 -6 6 -54 6 -108 1 -217 -64
-487 -228 -947 -147 -412 -171 -496 -144 -496 19 0 122 78 191 143 297 284
635 721 803 1037 144 272 176 445 110 590 -66 144 -244 332 -478 507 -55 41
-107 80 -115 86 -127 101 -543 343 -739 432 -172 77 -261 101 -261 70z"/>
<path d="M4866 3703 c2 -21 55 -191 118 -378 99 -293 158 -478 171 -535 2 -8
12 -53 24 -100 11 -47 23 -101 26 -120 3 -19 7 -46 10 -60 38 -211 18 -367
-70 -541 -105 -208 -231 -385 -543 -764 -9 -12 -46 -57 -82 -100 -35 -44 -67
-82 -71 -85 -3 -3 -27 -36 -53 -74 -58 -85 -53 -93 39 -70 99 25 379 159 595
284 501 292 839 585 942 816 23 54 30 147 17 222 -34 181 -172 455 -372 737
-220 311 -516 647 -671 762 -73 54 -85 55 -80 6z"/>
</g>
</svg>
