<svg version="1" xmlns="http://www.w3.org/2000/svg" width="933.333" height="933.333" viewBox="0 0 700.000000 700.000000"><path d="M2.6 169.7c-.3 1-.1 3.6.4 5.8.5 2.2.9 4.2 1 4.5.7 6.6 12 28.4 25 47.9 9.4 14.2 45.3 61.9 49 65.1.3.3 6 7 12.7 15 6.6 8 13 15.6 14.2 17 1.2 1.4 3.2 3.6 4.3 5 5.6 6.6 53 60.3 53.9 61 .3.3 4.3 4.8 8.8 10 4.6 5.2 10.2 11.5 12.5 14 2.2 2.5 7.5 8.3 11.6 13 4.1 4.6 10.5 11.6 14.1 15.5 3.6 3.8 9 9.7 12 13 9 9.9 43.9 44.6 51.8 51.5 4 3.6 7.9 7 8.5 7.5 2.5 2.4 15.5 12.4 21.6 16.7 18.2 12.8 35.3 19.9 48.8 20 4.2.1 8.8-.1 10.2-.5 23.9-5.7 46.9-22.4 82.5-59.9 17-17.9 25.2-26.9 40-43.8 6-6.9 11.2-12.7 11.5-13 .3-.3 5.3-5.9 11-12.5 5.8-6.6 11-12.5 11.5-13.1.6-.6 3.9-4.4 7.5-8.5 3.6-4 7.6-8.4 8.9-9.8 1.3-1.5 5.8-6.4 10-11.1 4.2-4.6 9.9-10.9 12.6-13.9 2.8-3.1 5.5-6.1 6-6.7 1.3-1.4 19.5-21.3 21.5-23.4.8-.9 4.9-5.4 8.9-10 4.1-4.7 8-9 8.6-9.5.5-.6 3.3-3.7 6-6.9 2.8-3.3 6.1-7.1 7.4-8.5 1.3-1.4 4.9-5.8 8-9.6 3.1-3.9 6.1-7.5 6.7-8 1.7-1.6 17.4-21.3 25.5-32 26.1-34.7 40.5-60.6 42.2-76.2.3-3.3.1-4.3-1.2-4.6-4.7-1.1-41.7 16.6-70.5 33.7-7 4.2-13 7.6-13.1 7.6-2.4 0-108.9 69.3-118 76.7-.5.5-4.8 3.4-9.5 6.6-4.7 3.2-13.7 9.4-20 13.8-6.3 4.4-12.8 8.9-14.5 10-1.6 1-3.7 2.3-4.5 2.9-19.9 13.5-26.6 17.9-37.1 24.3-12.9 7.7-28.7 15.9-36.9 19-21.6 8-40.1 5.5-71.7-9.9-11.5-5.6-33.9-18.7-47.3-27.7-13.2-8.8-73.8-51.4-87.5-61.4-18.8-13.8-65.1-45.2-95.5-64.8-11-7.1-32.8-19.3-46.6-26.1-14.5-7.1-21.8-9-22.8-5.7z"/></svg>