<svg version="1" xmlns="http://www.w3.org/2000/svg" width="933.333" height="933.333" viewBox="0 0 700.000000 700.000000"><path d="M328.4 45.4c-11.7 6.8-21.8 12.6-22.5 13-.8.3-3 1.6-4.9 2.7-3.9 2.4-211.5 122.3-230.5 133.2-15.4 8.8-15 8.6-21 12.8-12.6 9-21.5 21.8-26.3 37.8-1.5 5.1-1.7 19.4-2 177.6-.3 182.5-.4 180.6 4.4 193.4 8.3 22.1 28.7 38.9 50.6 41.7 7 .9 534.2 1.1 543.8.2 9.7-.9 11.2-1.2 19.3-4.5 11.2-4.6 18.8-11 29.5-24.8 1.3-1.6 5.8-11.7 7.1-15.6 1.3-4.1 1.9-6.6 2.8-12.4.6-4 .9-332.9.3-343.5-1.3-21.7-16.4-44.9-36.5-55.6-1.1-.6-11-6.2-22-12.6-11-6.4-21.6-12.5-23.5-13.5-11.2-6.4-45-25.9-48-27.8-1.9-1.2-6-3.6-9.1-5.3-3.1-1.7-15.5-8.8-27.5-15.8-12.1-6.9-29.8-17.1-39.4-22.6-9.6-5.5-18.7-10.9-20.2-11.9-1.5-1.1-3-1.9-3.3-1.9-.3 0-2.2-1-4.3-2.3-2-1.3-6.2-3.7-9.2-5.4-3-1.7-16.5-9.4-29.8-17.2-13.4-7.7-24.5-14.1-24.7-14.1-.2 0-3.3-1.8-7-4.1-9.9-6-24-13.9-24.7-13.9-.1.1-9.8 5.6-21.4 12.4zm41.6 65c9.1 5.8 20.3 12.8 25 15.7 4.7 2.9 11.4 7.1 15 9.4 3.6 2.3 17.5 11 31 19.4 26.1 16.2 80.5 50.3 88 55 10.6 6.7 27.9 17.6 33.5 21.1 6.9 4.2 28.6 17.8 36 22.5 2.8 1.7 7.1 4.4 9.7 6l4.7 2.9-6.2 4c-3.4 2.1-16.8 10.4-29.7 18.4-12.9 7.9-25.8 15.9-28.7 17.8-2.8 1.9-5.4 3.4-5.8 3.4-.4 0-2.5 1.3-4.8 2.9-3.7 2.5-26.7 16.8-31.5 19.6-.9.5-14.3 8.8-29.7 18.3-15.4 9.6-28.7 17.8-29.5 18.3-.8.5-8.5 5.2-17 10.4s-15.9 9.8-16.5 10.2c-.8.7-19 11.9-28.3 17.4-1.5.9-10 6.1-18.8 11.6l-16.2 10-19.3-11.9c-10.7-6.6-22.5-13.9-26.4-16.3-3.8-2.3-13.5-8.3-21.5-13.2-29.7-18.4-104.8-64.7-112-69.1-4.1-2.6-8.9-5.6-10.7-6.7-4.9-3.1-12.7-7.9-41.8-25.8-14.8-9.1-27.8-17.2-28.9-18-1.7-1.3-1.2-1.8 6.8-6.8 10-6.2 8.4-5.2 56.6-35.3 36.9-23.1 44-27.6 51.8-32.8 2.4-1.5 4.5-2.8 4.9-2.8.3 0 2.4-1.3 4.7-2.8 3.4-2.3 91.4-57.6 99.1-62.2 1.3-.8 10.2-6.3 19.6-12.2 13.1-8.2 17.6-10.5 18.8-9.8.9.5 9 5.7 18.1 11.4z"/></svg>