<svg version="1" xmlns="http://www.w3.org/2000/svg" width="1034.667" height="1034.667" viewBox="0 0 776.000000 776.000000"><path d="M280.9 127.5c-.3.3-5.5.8-11.5 1-11.2.5-20.4 1.2-23.9 1.9-1.1.2-4.1.6-6.6 1s-5.9.9-7.5 1.2c-1.6.3-3.8.7-4.9.9-1.1.2-2.9.6-4 .8-1.1.3-4.2 1-7 1.6-21.8 4.9-56.2 19-73.5 30.2-3.3 2.1-6.3 3.9-6.6 3.9-.3 0-1 .4-1.7 1-3.5 2.8-14.9 11-15.3 11-.3 0-1.1.6-1.8 1.3-.8.7-4.2 3.5-7.6 6.2-8.3 6.6-35.7 34-36.5 36.5-.3 1.1-1 2-1.5 2-1.2 0-12.8 15.8-19.8 27-12.7 20.3-23.6 46.4-28.7 69-.1.3-.7 2.4-1.3 4.7-.7 2.3-1.2 4.5-1 5 .1.4-.4 3.3-1 6.3-4.3 20.1-4.7 60.9-.7 83 .3 1.4.7 4.1 1 6 4.4 26.5 15.4 55.9 30 80 4.8 8 12.2 18.8 13.5 20 .3.3 1.7 2.1 3 4s2.9 4 3.5 4.6c.5.6 3.7 4.2 7 8C83.4 553.4 94 564 103 572c7.6 6.7 26.2 21 27.4 21 .5 0 1.7 1 2.7 2.2 1.1 1.1 1.9 1.8 1.9 1.4 0-.4 2 .7 4.4 2.3 5.7 4 29.7 16.4 36.1 18.7 2.8 1 5.2 2 5.5 2.3.3.4 4.6 1.9 9.5 3.5 5 1.6 10.8 3.5 13 4.2 2.2.8 5.1 1.6 6.5 1.8 1.4.3 4 .9 5.8 1.5 1.8.5 3.5 1 3.7 1 .3 0 1.8.2 3.3.5 1.5.4 4.1.8 5.9 1 1.8.3 3.6.7 4 .9.4.3 3.3.8 6.3 1.2 3 .3 6.9.8 8.5 1 14.4 1.9 40.4 2.5 54 1.1 4.4-.4 9.4-.9 11-1.1 1.7-.1 5.5-.6 8.5-1s6.4-.9 7.5-1.1c1.1-.1 2-.3 2-.4 0-.1 1.8-.5 7.5-1.4 5.8-1 17.7-3.7 20-4.6 1.4-.5 3.6-1.2 5-1.4 1.4-.3 2.5-.5 2.5-.6 0-.1.8-.3 1.7-.5 1.5-.3 4.7-1.3 12.8-4.3.8-.3 2-.6 2.5-.8.6-.1 3.3-1.2 6-2.5 2.8-1.2 5.5-2.3 6.1-2.4 5.3-1.2 42.4-22.2 43.2-24.6.2-.5.8-.9 1.4-.9.5 0 1.5-.6 2.2-1.2.7-.7 3-2.7 5.1-4.3 5.1-4 13.5-12.4 18.2-18.2 2.1-2.7 4-5 4.3-5.3.5-.4 8.5-10.5 10.8-13.5 6.2-8.3 12.7-17.3 16.3-22.5 2.4-3.6 4.6-6.7 5-7 .3-.3 1.6-2.3 2.9-4.5 1.3-2.2 2.7-4.2 3-4.5 1.2-1 11-17.1 11-18 0-.6.4-1 .9-1s1.3-1 1.7-2.3c.4-1.2 1.7-3.5 3-5 1.3-1.6 2.4-3.2 2.4-3.7s2.1-4.6 4.8-9.2c2.6-4.6 5.6-10.2 6.7-12.5 1.1-2.4 2.4-4.3 2.8-4.3.5 0 .5-.5.2-1-.3-.6-.3-1 .2-1 .4 0 1.4-1.3 2.1-2.8 1.4-3.3 7.3-11.3 12.3-16.8 4.6-5.2 14.3-13.4 15.8-13.4.6 0 1.1-.4 1.1-1 0-1.4 15.6-8.7 22.5-10.5 9.5-2.5 18.5-3.1 31-2.1 8.2.6 26.2.7 32 .2 6.7-.7 13.9-1.7 15.7-2.2 1-.3 3-.8 4.5-1.1 6.1-1.1 13.5-3.4 14.8-4.5.5-.4 1.7-.8 2.6-.8.9 0 2.2-.7 2.9-1.5.7-.8 1.9-1.5 2.8-1.5 2.7 0 17.7-10.8 24.5-17.5 7.7-7.6 16.1-19.8 20.9-30.5 4-8.7 9.5-24.9 10.2-30 .3-1.9.8-4.6 1.1-6 2.5-10.5 2.4-36.1-.2-44.5-.3-1.1-.7-2.7-.8-3.5-.7-6.6-7.2-24.3-12.7-34.9-14.1-27-31.6-45.4-54.3-57.3-4.8-2.5-18.4-7.3-23.5-8.2-1.4-.3-3.6-.8-5-1.1-2-.4-13-1.4-19.5-1.7-8.4-.4-32.2 2.8-42.5 5.8-3 .9-6.2 1.7-7 1.8-.9.1-2 .5-2.5.8-1 .6-31.3 8.4-36 9.2-1.4.3-3.3.7-4.3 1-.9.3-3.3.7-5.2 1-1.9.3-4.6.8-6 1.1-1.4.2-3.6.7-5 1-1.4.2-4.5.7-7 1-2.5.3-6.1.8-8 1.1-19.6 2.8-54.8 1.8-70-2.1-1.4-.4-3.4-.8-4.5-1-1.9-.3-5-1.4-10.5-3.8-1.4-.5-2.8-1-3.2-.9-.5.1-.8-.1-.8-.6 0-.4-1.8-1.8-4-3.2-2.2-1.4-4-2.8-4-3.2 0-.5-.7-.8-1.5-.8s-1.5-.4-1.5-.8-1.2-1.3-2.7-1.9c-1.6-.6-4.4-2.1-6.3-3.2-9.3-5.4-35.1-16.3-46.5-19.6-3.3-.9-7.1-2.1-8.5-2.6-1.4-.5-3.7-1.1-5.2-1.4-1.6-.3-4-.7-5.5-1-1.6-.3-3.4-.8-4.2-1.1-.8-.2-3.7-.7-6.5-1-2.8-.3-5.4-.8-5.7-1-.4-.2-2.8-.6-5.5-.9-2.7-.3-5.8-.8-7-.9-2.5-.5-12.7-1.5-20.8-2.1-3.2-.2-6.1-.7-6.3-.9-.3-.3-1.6-.1-2.8.4-1.5.6-2.5.5-2.7-.1-.2-.6-.6-.8-.9-.4zm27.1 70.9c8.7.7 13.3 1.3 17.5 2 1.7.3 3.9.7 5 .9 6 1.1 21.7 5.8 22.9 6.9.6.4 1.6.8 2.2.8 1.3 0 12.3 5.1 15.9 7.3 12.3 7.6 17.4 11.5 25.3 19.2 5 4.9 9.2 9.5 9.2 10 0 .6-3.2 3.5-7.1 6.4-3.9 3-7.6 6-8.3 6.5-.6.6-5.8 4.9-11.6 9.5-5.8 4.5-11.5 9.2-12.8 10.2-1.2 1-2.7 1.9-3.2 1.9-.6 0-1 .4-1 .9s-2.3 2.6-5 4.6l-5.1 3.7-4.8-4.5c-7.9-7.4-18.8-13.8-28.3-16.7-.4-.1-2.9-.8-5.5-1.6-7.9-2.4-12.1-2.9-26.3-2.9-13.7 0-20.7.4-22.5 1.4-.5.3-1.4.6-2 .7-4.9 1-6 1.3-6 1.4 0 .1-.7.3-1.5.5-2.6.5-16.5 6.9-16.8 7.7-.2.4-.8.8-1.4.8-1.6 0-12.9 8.5-18.8 14.2-6.9 6.5-14.6 16.3-19.1 24.3-7.2 12.5-13.4 31.3-14.3 43.1-.1 2.2-.5 4.5-.8 5-.5 1-.1 28.3.5 32.9 1.3 9 3.1 18.1 3.9 18.9.4.6.8 2 .8 3.3 0 1.3.4 3.1.9 4.1.9 1.5 2.2 4.8 2.6 6.2 0 .3 1.4 3.2 3 6.5 9.9 19.9 24.6 35.2 44.8 46.3 3.1 1.8 5.7 2.9 5.7 2.5 0-.4.5-.2 1.2.5s2.2 1.2 3.4 1.2c1.3 0 2.5.4 2.8.9.3.5 2.3 1.2 4.3 1.6 2.1.5 4.5 1 5.3 1.1 9.2 1.9 13.4 2.3 25 2 13.5-.3 16-.6 23.5-2.7 15.9-4.5 32.7-15.8 43.2-29.3 2-2.5 2.5-2.7 4-1.5 1 .8 2.2 1.8 2.8 2.2 1.2 1 20.1 15.1 23.3 17.5 1.3.9 5.8 4.3 10 7.5 7.9 6 8.7 6.5 16 11.8l4.3 3.1-3.7 4.7c-3.9 4.8-16.1 17.1-20.4 20.6-5.5 4.4-10 7.5-11 7.5-.5 0-1 .4-1 .8 0 2.8-32.1 16.3-44.5 18.7-1.6.3-4.1.8-5.5 1-2.6.5-6.2 1-17 2.3-13.3 1.5-47.6.1-58-2.4-1.4-.4-3.4-.8-4.5-.9-9.8-1.4-27.1-6.8-39-12.1-2.2-1-4.2-1.8-4.5-1.9-.5-.1-4.7-2.3-12.7-6.7-7-3.8-22.2-14.9-28.2-20.5-3-2.9-5.9-5.3-6.3-5.3-.5 0-.8-.3-.8-.8 0-.4-2.5-3.3-5.5-6.5-3.1-3.1-5.3-5.7-5-5.7.3 0-.4-1-1.7-2.3-1.3-1.2-4.1-4.9-6.3-8.2-2.2-3.3-4.2-6.2-4.5-6.5-1.3-1.3-10-18.9-10-20.3 0-.8-.4-1.7-.8-1.9-2-.8-10.1-28.5-11.7-39.8-1.7-12.4-2-17.6-1.9-36 .1-24.2.6-29.8 3.9-44.8 7.5-33.8 20.9-58.6 43.9-81.7 5.6-5.6 11.5-11.3 13.3-12.8 4.1-3.4 21.9-15.7 22.7-15.7.4 0 2.3-1 4.4-2.3 12.9-7.9 38.5-16.7 56.2-19.1 1.9-.3 4.6-.8 6-1.1 1.4-.3 7.2-.8 13-1.1 5.8-.4 10.6-.7 10.7-.8.4-.3 16.3.2 23.3.8zM597.4 230c5.5 2.8 10.1 7.8 13.6 14.6 2.2 4.2 2.5 4.4 3.7 2.7.7-1 1.7-2.3 2.3-3 .5-.7 1-1.6 1-2.1 0-2.4 11.8-12.4 14.5-12.2.3 0 1.8-.6 3.3-1.3 4.2-2.2 19-2 25.2.3 2.8 1 5.9 2.5 6.8 3.2 5.5 4.2 10.7 12.4 11.8 18.3.3 1.6.9 4.3 1.3 6 .4 1.6.9 18.5.9 37.5l.1 34.5-13.4.1-13.5.1-.1-31.6c0-17.4-.2-32.4-.4-33.4-.8-4.1-4.7-10.4-7.5-12-5.9-3.5-18.3-2.4-23.5 2.1-3 2.5-6.1 7.3-7 10.7-.5 1.6-.9 16.4-1.1 32.8-.1 16.4-.5 30.1-.9 30.5-.4.4-6.2.7-13 .8h-12.3l-.1-27.5c-.1-34-.4-37-3.7-43.1-5.5-10.1-19.7-11.6-28.7-3.2-6.9 6.5-7.9 12.6-8.1 45.7l-.1 28-13.7.1-13.8.1v-49.4c0-46.3.1-49.3 1.8-49.4.9 0 7-.1 13.4-.2l11.7-.2v8.5c-.1 4.7 0 9.1 0 9.9.1 1.4 1.8-.6 6.1-6.9 2.7-4 7.5-8.5 11.2-10.4 5.6-2.8 9.6-3.5 18.8-3.3 6.7.2 9.5.8 13.4 2.7z"/></svg>