<svg xmlns="http://www.w3.org/2000/svg" xmlns:xlink="http://www.w3.org/1999/xlink" width="48" height="48"><defs><linearGradient id="e"><stop offset="0"/><stop offset="1" stop-opacity="0"/></linearGradient><linearGradient id="a"><stop offset="0" stop-opacity="0"/><stop offset=".5"/><stop offset="1" stop-opacity="0"/></linearGradient><linearGradient xlink:href="#a" id="h" x1="302.857" x2="302.857" y1="366.648" y2="609.505" gradientTransform="matrix(2.77439 0 0 1.9697 -1892.179 -872.885)" gradientUnits="userSpaceOnUse"/><linearGradient id="d"><stop offset="0" stop-color="#fff"/><stop offset="1" stop-color="#939393"/></linearGradient><linearGradient id="f"><stop offset="0" stop-color="#f2f2f2"/><stop offset="1" stop-color="#d0d0d0"/></linearGradient><linearGradient id="b" x1="12.487" x2="31.081" y1="3.732" y2="36.033" stroke-dasharray="none" stroke-miterlimit="4" stroke-width="1.217" gradientUnits="userSpaceOnUse"><stop offset="0" stop-color="#d2d2d2"/><stop offset="1" stop-color="#ededed"/></linearGradient><linearGradient xlink:href="#b" id="k" x1="12.487" x2="31.081" y1="3.732" y2="36.033" gradientTransform="translate(-2.021 .19)scale(1.21138)" gradientUnits="userSpaceOnUse"/><linearGradient xlink:href="#d" id="m" x1="28.107" x2="22.169" y1="34.869" y2="9.866" gradientTransform="translate(0 .884)" gradientUnits="userSpaceOnUse"/><radialGradient xlink:href="#e" id="j" cx="605.714" cy="486.648" r="117.143" fx="605.714" fy="486.648" gradientTransform="matrix(-2.77439 0 0 1.9697 112.762 -872.885)" gradientUnits="userSpaceOnUse"/><radialGradient xlink:href="#e" id="i" cx="605.714" cy="486.648" r="117.143" fx="605.714" fy="486.648" gradientTransform="matrix(2.77439 0 0 1.9697 -1891.633 -872.885)" gradientUnits="userSpaceOnUse"/><radialGradient xlink:href="#f" id="l" cx="26.728" cy="38.349" r="17.926" fx="26.728" fy="38.349" gradientTransform="matrix(1.8485 0 0 1.28908 -21.3 -13.682)" gradientUnits="userSpaceOnUse"/></defs><g color="#000"><path fill="url(#h)" d="M-1559.252-150.697h1339.633V327.66h-1339.633z" opacity=".402" overflow="visible" style="marker:none" transform="matrix(.02367 0 0 .02087 45.086 40.145)"/><path fill="url(#i)" d="M-219.619-150.68v478.33c142.874.9 345.4-107.17 345.4-239.196S-33.655-150.68-219.619-150.68" opacity=".402" overflow="visible" style="marker:none" transform="matrix(.02367 0 0 .02087 45.086 40.145)"/><path fill="url(#j)" d="M-1559.252-150.68v478.33c-142.875.9-345.4-107.17-345.4-239.196s159.436-239.134 345.4-239.134" opacity=".402" overflow="visible" style="marker:none" transform="matrix(.02367 0 0 .02087 45.086 40.145)"/></g><path fill="url(#k)" stroke="#646464" stroke-width=".992" d="M45.344 39.904a3.516 3.516 0 0 1-3.513 3.513H6.337a3.516 3.516 0 0 1-3.513-3.513V7.094a3.516 3.516 0 0 1 3.513-3.512h35.494a3.516 3.516 0 0 1 3.513 3.513z" transform="matrix(1.0113 0 0 1.00414 -.356 -.097)"/><path fill="url(#l)" stroke="url(#m)" stroke-opacity=".617" stroke-width=".998" d="M41.468 35.252H6.615V11.25h34.853z" transform="matrix(1.00423 0 0 .9999 -.143 .251)"/><path fill="none" stroke="#fff" stroke-opacity=".86" stroke-width=".997" d="M44.48 39.328c0 1.86-.98 3.017-2.84 3.017H6.616c-1.86 0-2.928-1.069-2.928-2.928V7.597c0-1.86 1.51-3.193 3.37-3.193h34.14c1.86 0 3.282 1.334 3.282 3.193z" transform="matrix(1.00509 0 0 1.00154 -.206 .09)"/><g fill="#c00" stroke="#c00" stroke-linecap="round" stroke-linejoin="round" stroke-width="2.64" color="#000"><path d="M11.319 9.224c5.323 5.469 11.45 9.9 17.892 13.707l-1.77 1.229c-6.34-4.115-12.388-8.661-18.257-13.508z" overflow="visible" style="marker:none" transform="matrix(.75103 0 0 .76405 10.062 10.183)"/><path d="M26.739 8.921c-4.871 7.032-11.492 12.16-18.832 16.36l2.18-1.76c-1.363.858 15.487-11.717 13.765-13.313z" overflow="visible" style="marker:none" transform="matrix(.75103 0 0 .76405 10.062 10.183)"/></g><text xml:space="preserve" x="6.096" y="45.219" font-family="sans-serif" font-size="5.045" font-weight="400" letter-spacing="0" style="line-height:125%" transform="scale(1.1202 .8927)" word-spacing="0"><tspan x="6.096" y="45.219">NOT FOUND</tspan></text><text xml:space="preserve" x="4.422" y="15.069" font-family="sans-serif" font-size="6.457" font-weight="400" letter-spacing="0" style="line-height:125%" transform="scale(1.62805 .61423)" word-spacing="0"><tspan x="4.422" y="15.069">IMAGE</tspan></text></svg>