<svg version="1" xmlns="http://www.w3.org/2000/svg" width="1034.667" height="1034.667" viewBox="0 0 776.000000 776.000000"><path d="M464.8 46.6c-.2.1-3 .5-6.3.8-12 .9-28.1 5.8-41.9 12.5-10.1 5-18.7 9.8-19.6 11-.3.3-3.2 2.6-6.4 5l-5.9 4.4-3.3-1.8c-1.8-1-4.1-2.5-5.1-3.4-1-1-2.5-2-3.3-2.4-.8-.5-3.3-1.9-5.5-3.2-6.5-3.9-11.6-6.4-19.5-9.6-4.1-1.7-8.4-3.5-9.5-3.9-2.9-1.3-12.4-3.9-16.9-4.6-2.1-.3-4.8-.8-6-1.1-3.9-1-34-1.2-40.1-.3-24.9 3.9-47.6 16.1-67.9 36.4-11.5 11.5-12.1 12.2-17.3 19.6-8.5 12.2-15.6 26.4-17.8 35.7-.3 1-1.1 4.5-2 7.8-.8 3.3-1.8 8-2.1 10.5-1.1 6.6-1.2 120.2-.2 122.2.5 1 .5 1.8.1 1.8-.5 0-.8 1.9-.6 4.2l.2 4.3-9.1 5.5c-5 3-9.6 5.7-10.2 5.9-.5.2-1.9 1.2-3 2.3-1.1 1-2.4 1.8-2.9 1.8s-6.7 3.6-13.8 8c-7.1 4.4-13.3 8-13.8 8s-1.1.3-1.3.7c-.3.8-8.3 5.9-13.8 9-1.4.8-5.2 3.2-8.5 5.3-3.3 2.2-8.5 5.4-11.5 7.1-3 1.8-5.7 3.6-6 4-.3.4-1.8 1.4-3.3 2.2-7.2 3.8-24.5 20.8-30.6 30.2-1.4 2.2-2.8 4.2-3.1 4.5-1.1 1-9.9 19.7-11.5 24.5-1 2.7-2 5.7-2.3 6.5-.7 2.1-1.5 5-2.7 10.7-.3 1.3-.7 3.3-1 4.5-.6 2.7-1.5 8.6-2 13.6-.6 4.8-.6 22.1-.1 24.7.2 1.1.7 4.2 1 7 .4 2.7 1.1 6.3 1.6 8 .5 1.6 1.7 5.5 2.7 8.5.9 3 1.7 5.7 1.8 6 .2 2.6 13.1 25.9 15.4 28 .4.3 1.9 2.3 3.5 4.5 4.8 6.6 21 21.8 28.7 27 5.7 3.8 24.2 14 26.4 14.6 4.1 1 4.4 1.2 3.7 2.8-.9 1.9-.8 29.2.2 37.1.4 3 1.2 7.3 1.8 9.5.6 2.2 1.1 4.4 1.2 5 1 4.8 2 8.2 2.6 9 .4.5 1 2.3 1.4 4 2.1 8.6 13.1 28.7 21.1 38.5 5.1 6.2 15 16 16.1 16 .3 0 1.9 1.3 3.5 2.9 1.6 1.6 4.2 3.5 5.9 4.3 1.6.7 3 1.6 3 2 0 .5.5.8 1.2.8.6 0 1.9.6 2.7 1.4 2 1.7 19.3 9.6 22.3 10.1 1.3.3 3.2.9 4.3 1.4 1.1.5 3.4 1.3 5 1.7 1.7.4 3.5.8 4 1 14.7 3.7 27 4.5 44 3.1 12.4-1.1 25.9-5.1 37.3-11.2 2.6-1.4 5.2-2.5 5.9-2.5.6 0 1.3-.4 1.5-.8.2-.5 4.4-3 9.3-5.7 5-2.7 10.8-5.9 13-7.2 2.2-1.3 5.6-3 7.5-3.9 1.9-.9 4.6-2.4 6-3.4 2.3-1.5 9.8-5.7 20.5-11.4 2.2-1.1 4.2-2.4 4.5-2.7.3-.3 2-1.1 3.8-1.8 1.7-.8 3.2-1.7 3.2-2.2 0-.5.9-.9 2-.9s2-.4 2-.8 3.3-2.5 7.3-4.5c3.9-2.1 9.3-5 11.8-6.4 4.7-2.7 5.2-2.6 10.4.6 1.7 1 4.6 2.7 6.5 3.8 3.3 1.9 20.8 12.3 24 14.3 6.1 3.7 17.4 10 18.1 10 .5 0 .9.3.9.8 0 .4.9 1.2 2 1.7 1.1.6 8.9 5 17.2 10 8.4 4.9 16.7 9.8 18.3 10.7 3.2 1.9 19.6 10.1 20.5 10.3.3 0 3.4 1 7 2.2 9 2.9 10.3 3.2 20.5 4.8 8.3 1.3 26.4 1.3 32.5.1 1.4-.2 4.1-.7 6-1 1.9-.3 5-1 6.8-1.5 1.7-.5 3.2-.7 3.2-.4 0 .3.6 0 1.3-.6.8-.6 1.7-.8 2-.5.3.3 1.2.2 1.9-.2.7-.5 1.5-.9 1.8-.9.3-.1 2.3-.7 4.5-1.4 23.2-7.6 46.6-24.4 58.9-42.4 2.2-3.1 4.3-5.7 4.8-5.7s.7-.4.4-.9c-.3-.5.1-1.4.9-2.1.8-.7 1.5-1.7 1.5-2.2 0-.6.9-2.3 2.1-3.9 1.1-1.6 2.2-3.6 2.3-4.3.1-.8.8-2.1 1.5-3 .7-.9 1-1.6.6-1.6s-.3-.6.2-1.3c.5-.6 2-4.1 3.2-7.7 1.3-3.6 2.6-7.2 2.9-8 .3-.8.5-1.8.4-2.2-.1-.4.4-2.4 1.2-4.5 1.7-4.8 2.5-10.5 3.1-21.3.3-4.7.7-9.7.9-11.3.2-1.5 0-3-.5-3.3-.5-.2-.4-1.5.1-2.9.5-1.3.6-3.6.2-5.2-.6-2.5-.7-4.1-.3-7.9.1-.5 1.8-1.7 3.9-2.5 6.8-2.6 27.6-13.2 29.2-14.9.3-.3 3-2.3 6-4.5 5-3.6 11.9-9.6 17.3-15 1.1-1.1 4.6-5.4 7.8-9.5 3.3-4.1 6.4-8 6.9-8.7.6-.7 1-1.5 1-1.9 0-.4 1-2.1 2.3-3.8 4.7-6.3 11.7-22.9 14.1-33.4 8-35.7-.6-76.8-22.3-106-7.7-10.4-23.5-26.2-26.1-26.2-.5 0-1-.3-1-.8 0-.4-4.8-3.6-10.7-7.2-6-3.6-11-6.7-11.3-7.1-.3-.3-1.8-1.2-3.5-2.1-3.4-1.7-6.8-3.6-17.8-10.2-4.3-2.5-8.3-4.6-8.8-4.6s-.9-.4-.9-.9-.8-1.1-1.7-1.4c-1.7-.6-8.1-4.2-13-7.3-1.2-.7-3.7-2.2-5.5-3.3-1.9-1-7.1-4-11.7-6.7-4.5-2.7-9.8-5.8-11.6-6.9-7.9-4.6-7.3-1.9-6.9-34.6 1.2-87.9 1.2-95.9-.9-107.4-.2-1.1-.7-4-1.2-6.5-.4-2.5-1.2-5.1-1.7-5.8-.6-.6-.8-1.2-.5-1.2.9 0-3.8-12.3-7.5-20-4.3-8.8-9-16-16.7-25.5-20.6-25.3-45.6-41.3-73.4-47-1-.2-2.8-.7-4-1.1-2.1-.7-32.3-1.5-32.9-.8zM306 138.4c13.5 2 28.4 14.3 30.5 25.5.2.9.4 1.6.5 1.6.3 0 .9 4.3 1.6 11 .3 3.8.7 38.7.8 77.5.1 38.8.4 71.4.8 72.5 3.7 11.2 7 16.9 13.2 23.1 3.6 3.5 13 9.1 16.8 9.8.7.2 2.1.6 3.1 1.1 2.1.9 15 1 19.4.1 1.8-.3 4.5-1.1 6-1.8 1.5-.6 3-1.2 3.3-1.3 1.5-.3 6-3.2 9.7-6.2 3.6-2.9 10.7-11.6 10.8-13.3 0-.3.6-1.4 1.2-2.5 1.5-2.7 3.4-10 3.9-15 .5-4.6 1.1-31.3 1.9-89 .3-22.6.7-44.1 1-47.8.4-6 2.4-15 4.2-19.7.4-.8.7-1.7.7-2 .5-2.5 7.2-12.3 10.4-15.2 6.4-5.7 12.9-8.2 24.7-9.3 6.3-.6 22.6 4.5 25.5 8 .7.8 1.8 1.5 2.4 1.5 1.8.1 7.8 8.4 9.9 13.7 1.9 5 3.1 11.1 3.1 17.5.1 2.1.3 3.8.6 3.8s.4 12.3.3 27.2c-.2 15-.2 28.2-.2 29.3.1 3.2 0 6.8-.1 9 0 1.1-.1 4.2 0 7v9.7c0 .7-.1 12.2-.2 25.6-.1 13.3.1 24.5.5 24.8.3.3.2 1.7-.3 3-.6 1.6-.6 2.4.1 2.4.6 0 .8.3.5.8-.4.6.8 7.7 1.8 10.7 1.7 5.2 6 12.8 9.2 16.2 2.5 2.6 14.8 11.3 16 11.3.8 0 1.4.3 1.4.8 0 .4 1.7 1.6 3.8 2.7 2 1 5.1 2.9 6.9 4.2 1.7 1.3 3.5 2.3 3.8 2.3.4 0 4.1 2 8.3 4.5 4.2 2.5 8.4 5 9.2 5.5.8.4 8.3 4.8 16.5 9.5 8.3 4.8 16.2 9.6 17.7 10.6 1.5 1.1 2.9 1.9 3.1 1.9.3 0 6.4 3.6 13.7 8 7.3 4.4 13.4 8 13.7 8 .4 0 11.4 7.3 13.8 9.2 5.5 4.2 13.1 12 15 15.2 2.3 4 3.6 9.7 3.9 17.4.2 4-3 17.3-4.3 18.2-.5.3-1.5 1.8-2.4 3.5-2.3 4.4-9.5 11.8-14.7 15-3.8 2.4-5.6 2.9-11.5 2.9-8.4 0-17-1.1-19.6-2.5-1-.5-1.9-.7-1.9-.4 0 .3-1.3-.1-3-1-1.6-.9-3-1.3-3-1 0 .5-2.3-.7-14.5-7.5-1.6-.9-5.7-3.2-9-5-10.2-5.6-40.9-23.1-43.5-24.8-1.4-.9-2.8-1.5-3.2-1.4-.5.1-.8-.3-.8-.8 0-.6-.4-1-1-1-.5 0-4.4-2.1-8.7-4.6-4.3-2.5-10.3-6-13.3-7.7-3-1.7-7.1-3.9-9-5-17.3-9.7-25.1-12.6-35-13.1-12.1-.5-22.7 3.7-31.1 12.4-4.7 4.9-10.1 14.6-11.8 21.5-1.3 5-.7 18.4.8 21.3.6 1.2.9 2.2.6 2.2-.4 0 .4 1.5 1.7 3.2 1.3 1.8 2.1 3.4 2 3.6-.9.8 8.5 10.6 13.6 14.5 4.8 3.5 19.1 12.4 31.7 19.7 1.7 1 8.4 4.9 15 8.7 6.6 3.8 15 8.8 18.8 11.1 3.7 2.3 7.2 4.2 7.7 4.2.6 0 1 .4 1 .9s.8 1.1 1.8 1.4c.9.4 3.5 1.7 5.7 3 38.7 23.4 46.9 30.1 50.9 42.1 2.3 6.6 2.6 13.9.9 21-4.7 20.6-23.2 33.2-44.3 30.2-1.4-.2-2.7-.5-3-.6-.3-.1-.9-.3-1.5-.4-3.1-.6-19.2-8.6-23.7-11.8-1.6-1.1-2.8-1.6-2.8-1.2 0 .3-.7.1-1.5-.6-2.1-1.7-7.6-4.9-9.7-5.6-1-.4-1.8-1-1.8-1.4 0-.4-1.1-1.1-2.4-1.4-1.4-.3-3.1-1.2-3.8-1.9-.7-.6-2.6-1.9-4.3-2.7-2.9-1.4-6.9-3.7-13-7.6-1.6-1-3.2-1.9-3.5-1.9-.3 0-1.6-.8-3-1.7-3.2-2-34.4-20.4-43-25.2-8.9-5-18.5-9.5-24.5-11.3-6.6-2.1-20.6-1.9-27 .2-6.1 2-30.5 14.7-34.2 17.7-.7.6-1.3.7-1.3.4 0-.4-.6-.2-1.2.4-1.4 1.2-39.7 23-55.8 31.8-3 1.6-10.9 5.9-17.5 9.6-6.6 3.6-12.4 6.6-12.8 6.6-.5 0-2.3.7-4 1.4-4.8 2.2-15.2 4.7-20.2 4.8-10.3.2-24.1-8.4-31.5-19.8-4.7-7.1-6.6-18.7-4.5-27.9 1.7-7.3 5-12.9 10.8-18.1 5.6-5 26.8-19.4 28.6-19.4.6 0 1.1-.3 1.1-.8 0-.4 1.5-1.3 3.3-2.1 1.7-.8 3.4-1.7 3.7-2 .3-.4 6.8-4.2 14.5-8.6 7.7-4.4 14.7-8.5 15.7-9 14-8.1 26.6-15.1 27.6-15.3.6-.2 1.2-.8 1.2-1.3s.6-.9 1.4-.9c.7 0 1.9-.7 2.6-1.5.7-.8 1.6-1.3 2-1 .5.3 1.1.1 1.4-.3.3-.5 4.5-3.2 9.3-6.1 11.8-7 12.1-7.2 15.7-10.7 5.5-5.5 7.8-8.6 11-14.8 2.9-5.7 3.1-6.8 3.1-16.7 0-10.2-.1-10.7-3.9-18.3-6-12.2-17.8-22.2-28.5-24.3-8.4-1.6-20-.2-28 3.4-2 .9-3.8 1.7-4.1 1.7-.3.1-1.6.8-3 1.5-1.4.8-4.7 2.6-7.5 4.1-7.5 4.1-13.7 7.6-27.7 15.7-7 4-13.2 7.3-13.8 7.3-.5 0-1 .4-1 .9s-1.5 1.6-3.2 2.5c-1.8.9-4 2.1-4.8 2.6-6.2 4-29.5 17.3-38.5 22.1-13 6.8-21.4 9.9-31.5 11.5-12.9 2-21.7-1-30.1-10.4-9.6-10.6-12.8-22.1-10.5-36.5 1.5-9.4 8.3-17 24.6-27.7 5.8-3.9 11-7.4 11.7-8 .7-.5 1.5-1 1.8-1 .7 0 14.7-8.1 15.5-9 .3-.3 2.6-1.7 5.3-3 2.6-1.4 4.7-2.8 4.7-3.2 0-.5.4-.8 1-.8 1 0 58.3-34 65.4-38.8 10.2-6.9 18.3-18 21.5-29.2.7-2.5 1.3-10 1.5-16.6.1-6.6.6-12.5.9-13.1.4-.7.4-1.4 0-1.6-.6-.4-.9-13.4-.3-14.5.2-.3.2-9.1 0-10-.2-.4-.1-1.2 0-1.7.1-.6.4-19.2.7-41.5.4-38.1.7-49.8 1.3-51 .1-.3.2-.8.2-1.1-.1-.4.3-2.2.9-4 .6-1.9 1.2-4.2 1.4-5.3 1-4.4 6.5-14.4 10.3-18.7 4.5-5 12.4-9.4 18.6-10.3 2.2-.4 4.1-.8 4.2-.9.4-.4 7 0 12.4.7z"/></svg>